# xmcd
#
# Track frame offsets:
#  150
#  14884
#  42453
#  62599
#  90467
#  112111
#  137333
#  146410
#  162169
#  168206
#  195151
#  208200
#  252885
#  258570
#  283557
#  291501
#  307226
#  323740
#
# Disc length: 4610 seconds
#
# Revision: 0
# Processed by: cddbd v1.5.1PL2 Copyright (c) Steve Scherf et al.
# Submitted via: Collectorz.com_Music_Collector 6.11
#
DISCID=0f120012
DTITLE=Tom Russell and Andrew Hardin - Columbus Music Hall, Columbus - 20/4/2001 [CD2)
DYEAR=2001
DGENRE=Alt Country
TTITLE0=Rose Of The San Joaquin
TTITLE1=Down The Rio Grande
TTITLE2=Out In California
TTITLE3=That's What Work Is
TTITLE4=Let It Go
TTITLE5=Driving Nails In My Coffin
TTITLE6=Intro...
TTITLE7=St. Olav's Gate
TTITLE8=Intro....
TTITLE9=Medley- Barcelona,What Do You Want From Me, Blue Wing
TTITLE10=Outbound Plane
TTITLE11=Haley's Comet
TTITLE12=Intro.....
TTITLE13=Touch Of Evil
TTITLE14=Intro.......
TTITLE15=The Road It Gives, The Road It Takes Away
TTITLE16=If I Were A Child
TTITLE17=Walking On The Moon
EXTD=
EXTT0=
EXTT1=
EXTT2=
EXTT3=
EXTT4=
EXTT5=
EXTT6=
EXTT7=
EXTT8=
EXTT9=
EXTT10=
EXTT11=
EXTT12=
EXTT13=
EXTT14=
EXTT15=
EXTT16=
EXTT17=
PLAYORDER=
